{
	"asset":{
		"generator":"Khronos glTF Blender I/O v3.5.30",
		"version":"2.0"
	},
	"scene":0,
	"scenes":[
		{
			"name":"Scene",
			"nodes":[
				2
			]
		}
	],
	"nodes":[
		{
			"mesh":0,
			"name":"node-0",
			"scale":[
				0.10000000149011612,
				0.10000000149011612,
				0.10000000149011612
			]
		},
		{
			"children":[
				0
			],
			"name":"Node_3",
			"translation":[
				10.339259147644043,
				-101.47669219970703,
				-0.4725487232208252
			]
		},
		{
			"children":[
				1
			],
			"name":"Node_2",
			"translation":[
				-10.339259147644043,
				101.47669219970703,
				0.4725487232208252
			]
		}
	],
	"materials":[
		{
			"doubleSided":true,
			"name":"FF9800",
			"pbrMetallicRoughness":{
				"baseColorFactor":[
					1,
					0.35530897974967957,
					0,
					1
				],
				"metallicFactor":0,
				"roughnessFactor":0.749321699142456
			}
		},
		{
			"doubleSided":true,
			"name":"FFFFFF",
			"pbrMetallicRoughness":{
				"metallicFactor":0,
				"roughnessFactor":0.749321699142456
			}
		},
		{
			"doubleSided":true,
			"name":"1A1A1A",
			"pbrMetallicRoughness":{
				"baseColorFactor":[
					0.010396045632660389,
					0.010396045632660389,
					0.010396045632660389,
					1
				],
				"metallicFactor":0,
				"roughnessFactor":0.749321699142456
			}
		},
		{
			"doubleSided":true,
			"name":"F44336",
			"pbrMetallicRoughness":{
				"baseColorFactor":[
					0.9155868291854858,
					0.06903493404388428,
					0.04484441503882408,
					1
				],
				"metallicFactor":0,
				"roughnessFactor":0.749321699142456
			}
		},
		{
			"doubleSided":true,
			"name":"455A64",
			"pbrMetallicRoughness":{
				"baseColorFactor":[
					0.07321786880493164,
					0.12456735223531723,
					0.15378710627555847,
					1
				],
				"metallicFactor":0,
				"roughnessFactor":0.749321699142456
			}
		}
	],
	"meshes":[
		{
			"name":"buffer-0-mesh-0",
			"primitives":[
				{
					"attributes":{
						"POSITION":0,
						"TEXCOORD_0":1,
						"NORMAL":2
					},
					"indices":3,
					"material":0
				},
				{
					"attributes":{
						"POSITION":4,
						"TEXCOORD_0":5,
						"NORMAL":6
					},
					"indices":7,
					"material":1
				},
				{
					"attributes":{
						"POSITION":8,
						"TEXCOORD_0":9,
						"NORMAL":10
					},
					"indices":11,
					"material":2
				},
				{
					"attributes":{
						"POSITION":12,
						"TEXCOORD_0":13,
						"NORMAL":14
					},
					"indices":15,
					"material":3
				},
				{
					"attributes":{
						"POSITION":16,
						"TEXCOORD_0":17,
						"NORMAL":18
					},
					"indices":19,
					"material":4
				}
			]
		}
	],
	"accessors":[
		{
			"bufferView":0,
			"componentType":5126,
			"count":558,
			"max":[
				3.636018991470337,
				152.53146362304688,
				49.290428161621094
			],
			"min":[
				-87.20170593261719,
				1.2920769453048706,
				-49.290428161621094
			],
			"type":"VEC3"
		},
		{
			"bufferView":1,
			"componentType":5126,
			"count":558,
			"type":"VEC2"
		},
		{
			"bufferView":2,
			"componentType":5126,
			"count":558,
			"type":"VEC3"
		},
		{
			"bufferView":3,
			"componentType":5123,
			"count":558,
			"type":"SCALAR"
		},
		{
			"bufferView":4,
			"componentType":5126,
			"count":414,
			"max":[
				80.11344909667969,
				176.5484161376953,
				40.129371643066406
			],
			"min":[
				-75.36231994628906,
				19.892602920532227,
				-40.12934494018555
			],
			"type":"VEC3"
		},
		{
			"bufferView":5,
			"componentType":5126,
			"count":414,
			"type":"VEC2"
		},
		{
			"bufferView":6,
			"componentType":5126,
			"count":414,
			"type":"VEC3"
		},
		{
			"bufferView":7,
			"componentType":5123,
			"count":414,
			"type":"SCALAR"
		},
		{
			"bufferView":8,
			"componentType":5126,
			"count":144,
			"max":[
				-59.050323486328125,
				156.36183166503906,
				14.859525680541992
			],
			"min":[
				-65.07901763916016,
				150.33314514160156,
				-14.859475135803223
			],
			"type":"VEC3"
		},
		{
			"bufferView":9,
			"componentType":5126,
			"count":144,
			"type":"VEC2"
		},
		{
			"bufferView":10,
			"componentType":5126,
			"count":144,
			"type":"VEC3"
		},
		{
			"bufferView":11,
			"componentType":5123,
			"count":144,
			"type":"SCALAR"
		},
		{
			"bufferView":12,
			"componentType":5126,
			"count":504,
			"max":[
				-37.526729583740234,
				190.3115692138672,
				10.572942733764648
			],
			"min":[
				-84.04743957519531,
				122.75861358642578,
				-10.57290267944336
			],
			"type":"VEC3"
		},
		{
			"bufferView":13,
			"componentType":5126,
			"count":504,
			"type":"VEC2"
		},
		{
			"bufferView":14,
			"componentType":5126,
			"count":504,
			"type":"VEC3"
		},
		{
			"bufferView":15,
			"componentType":5123,
			"count":504,
			"type":"SCALAR"
		},
		{
			"bufferView":16,
			"componentType":5126,
			"count":324,
			"max":[
				6.280783176422119,
				4.014040946960449,
				51.71989440917969
			],
			"min":[
				-26.947607040405273,
				1.4246829748153687,
				-51.71989440917969
			],
			"type":"VEC3"
		},
		{
			"bufferView":17,
			"componentType":5126,
			"count":324,
			"type":"VEC2"
		},
		{
			"bufferView":18,
			"componentType":5126,
			"count":324,
			"type":"VEC3"
		},
		{
			"bufferView":19,
			"componentType":5123,
			"count":324,
			"type":"SCALAR"
		}
	],
	"bufferViews":[
		{
			"buffer":0,
			"byteLength":6696,
			"byteOffset":0,
			"target":34962
		},
		{
			"buffer":0,
			"byteLength":4464,
			"byteOffset":6696,
			"target":34962
		},
		{
			"buffer":0,
			"byteLength":6696,
			"byteOffset":11160,
			"target":34962
		},
		{
			"buffer":0,
			"byteLength":1116,
			"byteOffset":17856,
			"target":34963
		},
		{
			"buffer":0,
			"byteLength":4968,
			"byteOffset":18972,
			"target":34962
		},
		{
			"buffer":0,
			"byteLength":3312,
			"byteOffset":23940,
			"target":34962
		},
		{
			"buffer":0,
			"byteLength":4968,
			"byteOffset":27252,
			"target":34962
		},
		{
			"buffer":0,
			"byteLength":828,
			"byteOffset":32220,
			"target":34963
		},
		{
			"buffer":0,
			"byteLength":1728,
			"byteOffset":33048,
			"target":34962
		},
		{
			"buffer":0,
			"byteLength":1152,
			"byteOffset":34776,
			"target":34962
		},
		{
			"buffer":0,
			"byteLength":1728,
			"byteOffset":35928,
			"target":34962
		},
		{
			"buffer":0,
			"byteLength":288,
			"byteOffset":37656,
			"target":34963
		},
		{
			"buffer":0,
			"byteLength":6048,
			"byteOffset":37944,
			"target":34962
		},
		{
			"buffer":0,
			"byteLength":4032,
			"byteOffset":43992,
			"target":34962
		},
		{
			"buffer":0,
			"byteLength":6048,
			"byteOffset":48024,
			"target":34962
		},
		{
			"buffer":0,
			"byteLength":1008,
			"byteOffset":54072,
			"target":34963
		},
		{
			"buffer":0,
			"byteLength":3888,
			"byteOffset":55080,
			"target":34962
		},
		{
			"buffer":0,
			"byteLength":2592,
			"byteOffset":58968,
			"target":34962
		},
		{
			"buffer":0,
			"byteLength":3888,
			"byteOffset":61560,
			"target":34962
		},
		{
			"buffer":0,
			"byteLength":648,
			"byteOffset":65448,
			"target":34963
		}
	],
	"buffers":[
		{
			"byteLength":66096,
			"uri":"Chicken_02.bin"
		}
	]
}
